<svg width="39" height="41" viewBox="0 0 39 41" fill="none" xmlns="http://www.w3.org/2000/svg">
<path d="M24.3563 1.00019L28.6827 8.49371L21.1891 12.8201M33.9413 18.0634C34.4587 21.3085 33.8523 24.633 32.2225 27.4864C30.5927 30.3398 28.0374 32.5511 24.9794 33.7541C21.9215 34.9571 18.5444 35.0797 15.4073 34.1016C12.2701 33.1235 9.56115 31.1033 7.72878 28.3755C5.89641 25.6478 5.05057 22.376 5.33129 19.102C5.61201 15.8279 7.00247 12.7479 9.27244 10.3719C11.5424 7.99591 14.5558 6.46638 17.8136 6.03657C21.0714 5.60677 24.3784 6.30246 27.1869 8.00846" stroke="#E6E7F2" stroke-width="2" stroke-linecap="round" stroke-linejoin="round"/>
<path d="M12.0667 19.0884V18.0084C12.6907 18.0164 13.2187 17.9124 13.6507 17.6964C14.1307 17.4484 14.4187 17.0884 14.5147 16.6164H15.6307V25.0164H14.1307V19.0884H12.0667ZM18.6746 21.2124L19.5746 16.6164H23.9186V17.8404H20.5946L20.1626 19.9764L20.1866 20.0004C20.5706 19.5764 21.0866 19.3644 21.7346 19.3644C22.5506 19.3644 23.1986 19.6324 23.6786 20.1684C24.1346 20.6804 24.3626 21.3484 24.3626 22.1724C24.3626 22.9484 24.1386 23.6164 23.6906 24.1764C23.1546 24.8484 22.4106 25.1844 21.4586 25.1844C20.6186 25.1844 19.9346 24.9684 19.4066 24.5364C18.8466 24.0804 18.5506 23.4444 18.5186 22.6284H19.8866C19.9266 23.0764 20.0826 23.4244 20.3546 23.6724C20.6266 23.9204 20.9866 24.0444 21.4346 24.0444C22.4746 24.0444 22.9946 23.4284 22.9946 22.1964C22.9946 21.7004 22.8666 21.2924 22.6106 20.9724C22.3226 20.6204 21.9186 20.4444 21.3986 20.4444C20.6866 20.4444 20.2346 20.7004 20.0426 21.2124H18.6746Z" fill="#E6E7F2"/>
</svg>
