<svg width="39" height="41" viewBox="0 0 39 41" fill="none" xmlns="http://www.w3.org/2000/svg">
<path d="M14.4184 1.00016L10.092 8.49368L17.5855 12.8201M4.83337 18.0634C4.31599 21.3085 4.92239 24.6329 6.55215 27.4864C8.18192 30.3398 10.7373 32.5511 13.7952 33.7541C16.8532 34.9571 20.2303 35.0797 23.3674 34.1016C26.5045 33.1234 29.2135 31.1033 31.0459 28.3755C32.8782 25.6478 33.7241 22.376 33.4434 19.102C33.1626 15.8279 31.7722 12.7479 29.5022 10.3719C27.2322 7.99588 24.2189 6.46635 20.9611 6.03654C17.7032 5.60674 14.3963 6.30243 11.5878 8.00843" stroke="#A0A3B1" stroke-width="2" stroke-linecap="round" stroke-linejoin="round"/>
<path d="M12.0667 19.0883V18.0083C12.6907 18.0163 13.2187 17.9123 13.6507 17.6963C14.1307 17.4483 14.4187 17.0883 14.5147 16.6163H15.6307V25.0163H14.1307V19.0883H12.0667ZM18.6746 21.2123L19.5746 16.6163H23.9186V17.8403H20.5946L20.1626 19.9763L20.1866 20.0003C20.5706 19.5763 21.0866 19.3643 21.7346 19.3643C22.5506 19.3643 23.1986 19.6323 23.6786 20.1683C24.1346 20.6803 24.3626 21.3483 24.3626 22.1723C24.3626 22.9483 24.1386 23.6163 23.6906 24.1763C23.1546 24.8483 22.4106 25.1843 21.4586 25.1843C20.6186 25.1843 19.9346 24.9683 19.4066 24.5363C18.8466 24.0803 18.5506 23.4443 18.5186 22.6283H19.8866C19.9266 23.0763 20.0826 23.4243 20.3546 23.6723C20.6266 23.9203 20.9866 24.0443 21.4346 24.0443C22.4746 24.0443 22.9946 23.4283 22.9946 22.1963C22.9946 21.7003 22.8666 21.2923 22.6106 20.9723C22.3226 20.6203 21.9186 20.4443 21.3986 20.4443C20.6866 20.4443 20.2346 20.7003 20.0426 21.2123H18.6746Z" fill="#A0A3B1"/>
</svg>
