<svg width="110" height="110" viewBox="0 0 110 110" fill="none" xmlns="http://www.w3.org/2000/svg">
<g opacity="0.3">
<path d="M54.5237 54.5236V109.035C24.4216 109.035 0 84.6258 0 54.5236C0 47.1066 1.47596 40.0369 4.16742 33.5997V54.5236H54.5237Z" fill="#E6E7F2"/>
<path d="M109.047 54.5238C109.047 84.6259 84.6381 109.035 54.5236 109.035V54.5238H109.047Z" fill="#E6E7F2"/>
<path d="M109.047 54.5237H54.5236V0C84.6381 0 109.047 24.4092 109.047 54.5237Z" fill="#E6E7F2"/>
<path d="M54.524 0V54.5237H4.16774V33.5998C12.3661 13.8666 31.8389 0 54.524 0Z" fill="#E6E7F2"/>
</g>
<path d="M54.5241 54.5225V98.4725C30.2541 98.4725 10.5641 78.7925 10.5641 54.5225C10.5641 48.5425 11.7541 42.8425 13.9241 37.6525V54.5225H54.5241Z" fill="#E6E7F2"/>
<path d="M98.4841 54.5225C98.4841 78.7925 78.8041 98.4725 54.5241 98.4725V54.5225H98.4841Z" fill="#E6E7F2"/>
<path d="M98.4841 54.5225H54.5241V10.5625C78.8041 10.5625 98.4841 30.2425 98.4841 54.5225Z" fill="#E6E7F2"/>
<path d="M54.5241 10.5625V54.5225H13.9241V37.6525C20.5341 21.7425 36.2341 10.5625 54.5241 10.5625Z" fill="#E6E7F2"/>
<rect x="44.5343" y="42.0596" width="6.81957" height="24.9159" rx="3.40979" fill="#3F414E"/>
<rect x="57.6944" y="42.0596" width="6.81957" height="24.9159" rx="3.40979" fill="#3F414E"/>
</svg>
